PathFileType	4	(X/Y/Z)	29_1_42_p0_0-390.trc
DataRate	CameraRate	NumFrames	NumMarkers	Units	OrigDataRate	OrigDataStartFrame	OrigNumFrames
59.0	59.0	5	27	m	59.0	195	391
Frame#	Time	RHip			RKnee			RAnkle			RBigToe			RSmallToe			RHeel			LHip			LKnee			LAnkle			LBigToe			LSmallToe			LHeel			Neck			Head			Nose			RShoulder			RElbow			RWrist			RThumb			RIndex			RPinky			LShoulder			LElbow			LWrist			LThumb			LIndex			LPinky			
		X1	Y1	Z1	X2	Y2	Z2	X3	Y3	Z3	X4	Y4	Z4	X5	Y5	Z5	X6	Y6	Z6	X7	Y7	Z7	X8	Y8	Z8	X9	Y9	Z9	X10	Y10	Z10	X11	Y11	Z11	X12	Y12	Z12	X13	Y13	Z13	X14	Y14	Z14	X15	Y15	Z15	X16	Y16	Z16	X17	Y17	Z17	X18	Y18	Z18	X19	Y19	Z19	X20	Y20	Z20	X21	Y21	Z21	X22	Y22	Z22	X23	Y23	Z23	X24	Y24	Z24	X25	Y25	Z25	X26	Y26	Z26	X27	Y27	Z27	
195	3.305084745762712	0.37460568194057614	0.5483518224027488	0.9428808371747751	0.328340572329938	0.7090401236074931	1.3530526472088147	0.3024471658231739	0.7687749134752833	1.726300547466525	0.28550805485508307	0.6596963166236919	1.7855526783003082	0.328480821661643	0.6643403388919848	1.7722846446504514	0.2702575890415835	0.8415796726047462	1.786667539818904	0.18760617085435613	0.5092340036914272	0.9337399831301308	0.12851546445635556	0.680752283397886	1.3416287114453824	0.10396678794085293	0.7694069768637924	1.7083044530292086	0.12261609811471408	0.6405075647140491	1.768335866853371	0.07334560843552251	0.6495060078576296	1.7527047086688896	0.11061819046484529	0.8181701484899495	1.751772470922862	0.31227992781491526	0.4189157101693645	0.3949770564284684	0.3337958707112301	0.3655421403413269	0.16873359432152654	0.3649312077976454	0.3143438606648172	0.28580426857886543	0.43884334247629	0.4674031364946264	0.48124605581139157	0.46929364825669617	0.44126936220145435	0.6901191289952648	0.4046237626080366	0.25658879156707776	0.625735277873893	0.3519738299469008	0.16803916977466485	0.5652978534640183	0.3474524679126959	0.14377820223173832	0.5660612663272696	0.35352633211896833	0.1591566791290637	0.6219456481554995	0.1527942130484391	0.3729741260763812	0.48474315843120713	0.07528814201621938	0.40109327759371527	0.7155636107500496	0.1558948992466598	0.3895660537507714	0.9497281013405224	0.2296259342438981	0.40544960866096724	1.029353444805623	0.2186739120375662	0.3788674003931674	1.0567751870972741	0.16306170656082972	0.3815565779952947	1.0697403079349592
196	3.3220338983050848	0.374329860949494	0.5460999784180222	0.9386172732903746	0.3282727376891472	0.708963882151041	1.3530079820310996	0.3023787245142178	0.7685652043049954	1.7263109740795137	0.2829604519740848	0.6475075247284755	1.780360221874597	0.3256765391123046	0.6520338489601826	1.766792324521395	0.27012001371734645	0.841894748521514	1.786644393786078	0.1875889398223612	0.5094946168575563	0.9336608641550713	0.13445208124269628	0.6657956950927122	1.337532336479965	0.10454735861883141	0.7722236287069543	1.713980637210652	0.12104516977783379	0.6259014675113932	1.7620543219686593	0.07314205857379652	0.6490791113237274	1.7521119607126103	0.11047932161422254	0.8180555567055021	1.7516363946945397	0.31277208813282054	0.4183468238087037	0.39158450399292277	0.33795980189361896	0.3535203752776969	0.17034475443406558	0.36498094379909884	0.3143084864851269	0.2858770871769451	0.4310169765891148	0.4654340603584212	0.47748622113872297	0.48109226048464165	0.40164777137792407	0.6841047872151618	0.4078390549619927	0.2659524738634442	0.600685035283126	0.3465770602477432	0.17247855281513017	0.5219864977692986	0.3444844579948301	0.14160234601860336	0.5283406850971654	0.3614112077637458	0.1712979017868164	0.5811773837715305	0.16190992385214137	0.36012055182580777	0.47742575552073163	0.07806438470806565	0.412714381942366	0.7127818242831193	0.15573031537530388	0.3895973540189345	0.9496859725044198	0.22698160108582516	0.39441393083899945	1.0270959680248035	0.21442117430688173	0.3753678006148269	1.0558296261579283	0.15768189753307094	0.3937032751048166	1.0723626572653735
197	3.3389830508474576	0.3818215130655276	0.5601535806918726	0.9407676311947586	0.3268510661013199	0.7064900638788164	1.356511651251808	0.3025171543764011	0.768978183408004	1.7262921947168635	0.28556842259508314	0.660241486060795	1.7860344228101261	0.3286180991349736	0.6652998886164813	1.772561116200889	0.27021016297644823	0.8418503431819124	1.7866961397904386	0.18605153553649564	0.5228243822687836	0.9322380566017662	0.12700764529713884	0.6795052384307393	1.3402423777183947	0.10417186645794045	0.7681129944417545	1.712224841351725	0.12215000653628104	0.6373152643676762	1.7632565025465357	0.07350975637652979	0.6503067517415808	1.7536665592385736	0.11076984143162275	0.8172292313972124	1.7562734038955474	0.3127314309002449	0.41845273675803396	0.3989251628809562	0.3379268599598583	0.35495621425809704	0.17349602719524504	0.3613869847947442	0.3123976579214232	0.2860511893721356	0.4306067085849886	0.4633310387764949	0.4736984134120579	0.48047470216572	0.38957749070157044	0.6797294674929176	0.4084673996035881	0.2634338176089181	0.572720924357179	0.35497858561972634	0.18203658501408684	0.49547476813871955	0.3558548821178059	0.16060055360744757	0.498792538572192	0.3623909302843898	0.16621527033623487	0.5457730251926778	0.15331268322653951	0.37093458567057663	0.47736462434358395	0.07588864747118752	0.4004271478205174	0.7116852269171922	0.15002817497171597	0.4029949783271383	0.9553487624571219	0.21909989232154797	0.38132082892142605	1.0273515044698798	0.2078735131221019	0.36384904845375177	1.0529356126502918	0.15213911195629953	0.40733593018574504	1.071316445027561
198	3.3559322033898304	0.3822843181061348	0.5621521019922258	0.9450314670563188	0.3279662615265029	0.7054970102569923	1.3517890538719028	0.30254115436516515	0.7686442016948629	1.7261977438689438	0.2855684732531966	0.6602535472004629	1.786179061926284	0.32870351354448685	0.6655992625581811	1.7725198371770319	0.2702037703620355	0.8423445420018544	1.787242783754047	0.18237156701552007	0.5230802990417714	0.9359150793971358	0.13356772093469857	0.6658110311453758	1.3451093690194962	0.10475610323923122	0.7709563530539042	1.7177272428770733	0.12273135031205343	0.6399450823350532	1.768197784981968	0.07350026895170898	0.6501513062527744	1.7534912396452267	0.11071209164229907	0.81730228148996	1.7561219628175275	0.3128414367667284	0.417948399076379	0.402743009238063	0.34175724658677925	0.34324178570237124	0.1781011531937862	0.3646832752832842	0.31463237030126384	0.2896473901031897	0.43059878160686216	0.4631609466381099	0.47071511831260665	0.4768053806339939	0.37646303427995026	0.6748069105595884	0.40399328740963814	0.25967669731916976	0.5571598975578523	0.35728813335358445	0.19427025089835653	0.47094657139720225	0.36294981847191815	0.17078414867413844	0.4743099807059211	0.36165876300300875	0.1627972801529109	0.5127215686899977	0.1580331405987878	0.35946679355051686	0.4772792732803026	0.07727302131800158	0.41393880806770783	0.7128865770601126	0.14569858244294942	0.400699266794396	0.9550113241303451	0.21176376103412312	0.38086902162519326	1.0271288635898865	0.19642518609820478	0.36148145806761806	1.0552564296622058	0.14823596459983876	0.4062788271012019	1.0710378832264464
199	3.3728813559322033	0.3863111498414079	0.5456424374993986	0.9384417365648365	0.3285877919364418	0.707902526898732	1.3567578691131756	0.3025360770143973	0.7684866574816295	1.7261903485975758	0.2834252339722607	0.6492804367616712	1.781501003304916	0.32637345635602755	0.6549593853756085	1.7679058048504832	0.27031494304157544	0.8421101245533643	1.787395176064304	0.1823140624324948	0.5231634773206871	0.935981475306014	0.13352645410947314	0.6658511398699395	1.3452892667557508	0.10473713355060255	0.7709557971220795	1.7177689090269639	0.12254158884287455	0.6403132389546262	1.7683079851734647	0.07335582585456066	0.649809732566638	1.7530192524946135	0.11077176920945303	0.8169760545277757	1.75605436896229	0.31288773019710375	0.41778590708416047	0.40263837033903627	0.3418027732984363	0.343232331956647	0.17825693634716305	0.36498023079322384	0.3143433496455777	0.2860870053351211	0.430662872877401	0.4623217864536525	0.47055624442108784	0.47730887540464895	0.3754571373239744	0.671104957209474	0.4072572707555898	0.2576349700280713	0.5329889168007329	0.3631570254472995	0.21489968869782658	0.4482300293485736	0.3724902723539319	0.17287390568778457	0.4491705720450895	0.3671558343629721	0.16151569790768702	0.4929559305103917	0.15803203405399682	0.3593054155069414	0.4771846601145459	0.0772130436491269	0.41417397792768457	0.7130009350691429	0.1455166043825512	0.40093975152119704	0.9550669356504924	0.2048055989415241	0.3669307604911827	1.0235557438289862	0.19251775401347	0.3600284996414369	1.0513133336910228	0.14765620300682353	0.4075523063448302	1.067111473949771
